<svg xmlns="http://www.w3.org/2000/svg" width="69.91" height="69.94"><path class="cls-1" d="M69.9 50.11V15.15a1.169 1.169 0 0 0-1.17-1.16h-19.8v-2.33a7 7 0 0 0-6.99-6.99h-2.33v-.59A4.084 4.084 0 0 0 35.53 0a36.808 36.808 0 0 0-11.15 1.73L4.99 7.55A6.948 6.948 0 0 0 0 14.25V55.4a7 7 0 0 0 4.48 6.52l15.69 6.91a17.083 17.083 0 0 0 6.04 1.1 4.084 4.084 0 0 0 4.08-4.08v-2.91h11.65c3.76 0 6.33-1.8 6.87-4.67h19.92a1.169 1.169 0 0 0 1.17-1.16v-7zm-2.33-2.81L55.58 35.31a1.159 1.159 0 0 0-1.65 0l-6.16 6.17-8.5-8.5a1.147 1.147 0 0 0-1.64 0l-7.34 7.33v-13.5a1.723 1.723 0 0 1 1.14-1.64l5.39-1.48a4.084 4.084 0 0 0 2.79-3.87v-3.5h27.96V47.3zM41.94 7a4.665 4.665 0 0 1 4.66 4.66v2.33h-6.99V7h2.33zM27.96 65.85a1.752 1.752 0 0 1-1.75 1.75 14.831 14.831 0 0 1-5.16-.92L5.36 59.77a4.7 4.7 0 0 1-3.03-4.37V14.25a4.644 4.644 0 0 1 3.32-4.47l19.4-5.82a34.567 34.567 0 0 1 10.48-1.62 1.743 1.743 0 0 1 1.75 1.74v15.74a1.738 1.738 0 0 1-1.13 1.64l-5.4 1.48a4.075 4.075 0 0 0-2.79 3.87v39.04zm13.98-5.25H30.29v-2.33h16.12c-.71 2.07-3.27 2.33-4.47 2.33zm-11.65-4.66V43.61l8.16-8.16 8.49 8.5a1.177 1.177 0 0 0 1.65 0l6.16-6.17L67.57 50.6v5.34H30.29zM55.92 30.3a4.66 4.66 0 1 0-4.66-4.66 4.665 4.665 0 0 0 4.66 4.66zm0-6.99a2.33 2.33 0 1 1-2.33 2.33 2.339 2.339 0 0 1 2.33-2.33z"/></svg>