<svg xmlns="http://www.w3.org/2000/svg" width="69.9" height="69.94"><path class="cls-1" d="M69.89 50.11V15.15a1.163 1.163 0 0 0-1.17-1.16h-19.8v-2.33a6.991 6.991 0 0 0-6.99-6.99H39.6v-.59A4.082 4.082 0 0 0 35.53 0a36.824 36.824 0 0 0-11.16 1.73L4.98 7.55A6.939 6.939 0 0 0 0 14.25V55.4a6.991 6.991 0 0 0 4.47 6.52l15.69 6.91a17.1 17.1 0 0 0 6.05 1.1 4.082 4.082 0 0 0 4.07-4.08v-2.91h11.65c3.76 0 6.33-1.8 6.87-4.67h19.92a1.163 1.163 0 0 0 1.17-1.16v-7zm-39.61-9.8v-13.5a1.723 1.723 0 0 1 1.14-1.64l5.4-1.48a4.088 4.088 0 0 0 2.78-3.87v-3.5h27.96v39.62H30.28V43.61M41.93 7a4.665 4.665 0 0 1 4.66 4.66v2.33H39.6V7h2.33zM27.95 65.85a1.752 1.752 0 0 1-1.75 1.75 14.873 14.873 0 0 1-5.16-.92L5.35 59.77a4.688 4.688 0 0 1-3.02-4.37V14.25a4.632 4.632 0 0 1 3.32-4.47l19.39-5.82a34.629 34.629 0 0 1 10.49-1.62 1.741 1.741 0 0 1 1.74 1.74v15.74a1.738 1.738 0 0 1-1.13 1.64l-5.4 1.48a4.075 4.075 0 0 0-2.79 3.87v39.04zm13.98-5.25H30.28v-2.33H46.4c-.71 2.07-3.26 2.33-4.47 2.33zm7.56-8.39a15.845 15.845 0 1 1 15.83-15.85 15.855 15.855 0 0 1-15.83 15.85zm0-30.61a14.765 14.765 0 1 0 14.74 14.76A14.764 14.764 0 0 0 49.49 21.6zm0 11.22a4.27 4.27 0 1 1 4.26-4.27 4.272 4.272 0 0 1-4.26 4.27zm0-7.45a3.18 3.18 0 1 0 3.18 3.18 3.182 3.182 0 0 0-3.18-3.18zm0 22.9A4.27 4.27 0 1 1 53.75 44a4.272 4.272 0 0 1-4.26 4.27zm0-7.46A3.185 3.185 0 1 0 52.67 44a3.19 3.19 0 0 0-3.18-3.19zm7.88-.18a4.265 4.265 0 1 1 4.26-4.27 4.274 4.274 0 0 1-4.26 4.27zm0-7.45a3.185 3.185 0 1 0 3.18 3.18 3.182 3.182 0 0 0-3.18-3.18zm-15.32 7.45a4.265 4.265 0 1 1 4.26-4.27 4.274 4.274 0 0 1-4.26 4.27zm0-7.45a3.185 3.185 0 1 0 3.18 3.18 3.182 3.182 0 0 0-3.18-3.18zm7.44 5.14a1.955 1.955 0 1 1 1.95-1.96 1.961 1.961 0 0 1-1.95 1.96zm0-2.82a.865.865 0 1 0 .87.86.869.869 0 0 0-.87-.86zm.65 16.71H36.27a.545.545 0 0 1 0-1.09h13.87a.545.545 0 0 1 0 1.09z"/></svg>