<svg xmlns="http://www.w3.org/2000/svg" width="26" height="26"><path class="cls-1" d="M17.3 9.416c1.336.843 1.011 4.146.759 5.235a.738.738 0 0 0 .577.843h.145a.725.725 0 0 0 .722-.562c.108-.527 1.011-5.2-1.408-6.711a.763.763 0 0 0-1.011.211.723.723 0 0 0 .216.984zm5.453 8.327v-5.621a9.632 9.632 0 0 0-7.15-9.311h.289a2.89 2.89 0 0 0-5.778 0h.286a9.632 9.632 0 0 0-7.15 9.311v5.586A4.21 4.21 0 0 0 0 21.784v.7h8.739a4.34 4.34 0 0 0 8.522 0H26v-.7a4.2 4.2 0 0 0-3.25-4.041zM13 1.405a1.4 1.4 0 0 1 1.408 1.2A9.534 9.534 0 0 0 13 2.499a9.177 9.177 0 0 0-1.408.106A1.4 1.4 0 0 1 13 1.405zm0 2.5a8.263 8.263 0 0 1 8.306 8.186v5.481H4.694v-5.445A8.27 8.27 0 0 1 13 3.9zm0 20.694a2.789 2.789 0 0 1-2.781-2.108h5.6A2.861 2.861 0 0 1 13 24.594zM1.553 21.086a2.888 2.888 0 0 1 2.78-2.108h17.334a2.856 2.856 0 0 1 2.78 2.108H1.553z"/></svg>