<svg xmlns="http://www.w3.org/2000/svg" width="87" height="60"><path d="M87 7.344A7.373 7.373 0 0 0 79.6 0H52.2l-.74.183-7.96 3.49L35.54.186 34.8 0H7.4A7.373 7.373 0 0 0 0 7.344v41.475a7.373 7.373 0 0 0 7.4 7.341h27.03l8.33 3.67.74.184.74-.184 8.33-3.67H79.6a7.373 7.373 0 0 0 7.4-7.341V7.344zM34.8 52.489H7.4a3.686 3.686 0 0 1-3.7-3.671V7.344a3.686 3.686 0 0 1 3.7-3.67h27.03l7.219 3.212v48.448l-6.109-2.661zm48.5-3.671a3.686 3.686 0 0 1-3.7 3.671H52.2l-.74.183-6.108 2.661V6.885l7.218-3.212H79.6a3.686 3.686 0 0 1 3.7 3.67v41.476zM32.023 14.226h-18.7a1.843 1.843 0 0 0-1.851 1.835v21.1A1.843 1.843 0 0 0 13.328 39h18.7a1.843 1.843 0 0 0 1.851-1.835v-21.1a1.843 1.843 0 0 0-1.856-1.839zm-1.851 21.1H15.179V17.9h14.993v17.43zM55.9 17.9h11.108a1.835 1.835 0 1 0 0-3.67H55.9a1.835 1.835 0 1 0 0 3.67zm17.77 6.882H55.9a1.835 1.835 0 1 0 0 3.67h17.77a1.837 1.837 0 1 0 .002-3.674zm0 10.552H55.9a1.835 1.835 0 1 0 0 3.666h17.77a1.835 1.835 0 1 0 .002-3.67z" fill-rule="evenodd"/></svg>