<svg xmlns="http://www.w3.org/2000/svg" width="30" height="24"><path class="cls-1" d="M29.022 0H.978A.971.971 0 0 0 0 1v22a.972.972 0 0 0 .978 1h28.044A.972.972 0 0 0 30 23V1a.971.971 0 0 0-.978-1zm-.979 22H1.956V2h26.087v20zM4.337 6.933l6.554 5.4-4.728 4.8a1 1 0 0 0 .685 1.7.93.93 0 0 0 .685-.3l4.923-4.967 1.957 1.6a1.012 1.012 0 0 0 .619.234.9.9 0 0 0 .62-.234l1.957-1.6 4.924 4.967a.931.931 0 0 0 1.369 0 .982.982 0 0 0 0-1.4l-4.793-4.8 6.554-5.366a1.018 1.018 0 0 0 .163-1.4.966.966 0 0 0-1.37-.166l-7.3 6a.877.877 0 0 0-.2.167.032.032 0 0 1-.032.033L15 13.133 5.576 5.4a.966.966 0 0 0-1.37.166.948.948 0 0 0 .131 1.367z"/></svg>