<svg xmlns="http://www.w3.org/2000/svg" width="32.063" height="32.313"><path class="cls-1" d="M30.702 32.3H1.385a1.378 1.378 0 0 1-1.376-1.371V14.057a1.378 1.378 0 0 1 1.376-1.372h29.317a1.379 1.379 0 0 1 1.376 1.372V31a1.366 1.366 0 0 1-1.376 1.3zm-27.94-2.675h26.632v-14.2H2.762v14.2zm23.26-14.2a1.378 1.378 0 0 1-1.376-1.371 8.602 8.602 0 0 0-17.205 0 1.377 1.377 0 0 1-2.753 0 11.287 11.287 0 0 1 22.573 0 1.228 1.228 0 0 1-1.239 1.375zm4.68 0a1.378 1.378 0 0 1-1.377-1.371v-11.8a1.377 1.377 0 0 1 2.753 0v11.8a1.378 1.378 0 0 1-1.376 1.375zm-29.317 0a1.378 1.378 0 0 1-1.376-1.371v-11.8a1.377 1.377 0 0 1 2.753 0v11.8a1.378 1.378 0 0 1-1.377 1.375zm14.658-9.944a1.378 1.378 0 0 1-1.376-1.372v-2.74a1.377 1.377 0 0 1 2.753 0v2.743a1.379 1.379 0 0 1-1.377 1.372zM19.828 32.3h-7.57a1.378 1.378 0 0 1-1.376-1.371V27.5a12.847 12.847 0 0 1 4.267-9.327 1.379 1.379 0 0 1 1.858 0 12.731 12.731 0 0 1 4.266 9.327v3.43a1.487 1.487 0 0 1-1.445 1.37zm-6.262-2.675h4.955v-2.057a9.909 9.909 0 0 0-2.478-6.379 9.914 9.914 0 0 0-2.477 6.379v2.058z"/></svg>