<svg xmlns="http://www.w3.org/2000/svg" width="25" height="25"><path class="cls-1" d="M12.5 0v1.391h.527a11.118 11.118 0 0 1 7.525 18.77 11 11 0 0 1-7.941 3.448H6.946a5.453 5.453 0 0 1-3.915-1.641 5.53 5.53 0 0 1-1.639-3.948v-5.9a11.1 11.1 0 0 1 3.36-7.647A11.225 11.225 0 0 1 12.5 1.387V0m0 0A12.5 12.5 0 0 0 0 12.152v5.9A6.949 6.949 0 0 0 6.942 25h5.665a12.507 12.507 0 0 0 .472-25H12.5zm-1.944 11.068v-.584c.166-.056.389-.139.694-.223a7.53 7.53 0 0 1 .916-.194c.334-.056.639-.112.945-.14s.583-.055.833-.055l.3.2-1.555 7.369h1.194v.612a4.414 4.414 0 0 1-.528.3c-.194.084-.416.167-.638.251a2.95 2.95 0 0 1-.667.167 5.578 5.578 0 0 1-.638.055 1.212 1.212 0 0 1-.889-.25.787.787 0 0 1-.25-.556 5.373 5.373 0 0 1 .056-.668c.027-.222.083-.445.138-.723l1.167-5.311zM12 7.2a1.173 1.173 0 0 1 .389-.917 1.443 1.443 0 0 1 1-.334 1.474 1.474 0 0 1 1.028.334 1.173 1.173 0 0 1 .388.917 1.057 1.057 0 0 1-.388.862 1.521 1.521 0 0 1-1.028.334 1.543 1.543 0 0 1-1-.334A1.021 1.021 0 0 1 12 7.2z"/></svg>