<svg xmlns="http://www.w3.org/2000/svg" width="62.062" height="68.91"><path class="cls-1" d="M62.063 27.01a2.255 2.255 0 0 0-.671-1.61l-6.847-6.78V8.39a2.816 2.816 0 0 0-2.82-2.8H37.631L32.661.67a2.307 2.307 0 0 0-3.246 0l-4.968 4.92H10.352a2.817 2.817 0 0 0-2.821 2.8v10.23L.684 25.4a2.242 2.242 0 0 0-.675 1.61 2.14 2.14 0 0 0 .109.52.9.9 0 0 0-.109.41v38.19a2.808 2.808 0 0 0 2.821 2.79h56.412a2.808 2.808 0 0 0 2.821-2.79V27.94a.833.833 0 0 0-.105-.4 2.315 2.315 0 0 0 .105-.53zm-2-.29a.426.426 0 0 1 .075.52l-5.6 4.45V21.25zM30.746 1.99a.418.418 0 0 1 .586 0l3.639 3.6h-7.866zM10.353 7.45h41.368a.941.941 0 0 1 .94.94v24.8l-21.33 16.98a.455.455 0 0 1-.663-.06L9.411 33.19V8.39a.94.94 0 0 1 .941-.94zm-8.34 19.27l5.519-5.46v10.43L2.013 27.3a.394.394 0 0 1-.122-.29.424.424 0 0 1 .121-.29zm57.23 40.34H2.831a.937.937 0 0 1-.94-.93V29.59l27.525 21.9a2.34 2.34 0 0 0 1.646.67 2.141 2.141 0 0 0 1.521-.6l27.6-21.98v36.55a.939.939 0 0 1-.941.93zm-14.1-52.15H16.931a.935.935 0 1 1 0-1.87h28.206a.935.935 0 1 1 .002 1.87zm0 5.58H16.931a.93.93 0 1 1 0-1.86h28.206a.93.93 0 1 1 .002 1.86zm0 5.59H16.931a.93.93 0 1 1 0-1.86h28.206a.93.93 0 1 1 .002 1.86zm0 5.59H16.931a.93.93 0 1 1 0-1.86h28.206a.93.93 0 1 1 .002 1.86z"/></svg>