<svg xmlns="http://www.w3.org/2000/svg" width="73.312" height="76.219"><path class="cls-1" d="M27.912 68.906v-2.233a2.163 2.163 0 0 1 2.177-2.156h13.135a2.2 2.2 0 0 1 2.1 2.156v2.233a3.5 3.5 0 0 1-3.031 3.464l-.544 2a2.563 2.563 0 0 1-2.41 1.848h-5.441a2.425 2.425 0 0 1-2.409-1.848l-.545-2a3.5 3.5 0 0 1-3.032-3.464zm8.783-57.358a2.08 2.08 0 0 0 2.1-2.079V2.078a2.1 2.1 0 0 0-4.2 0v7.391a2.08 2.08 0 0 0 2.104 2.079zM2.112 38.418h7.462a2.131 2.131 0 0 0 2.1-2.079 2.08 2.08 0 0 0-2.1-2.079H2.112a2.079 2.079 0 1 0 0 4.158zm59.539-2.156a2.08 2.08 0 0 0 2.1 2.079h7.461a2.08 2.08 0 0 0 2.1-2.079 1.989 1.989 0 0 0-2.1-2.079H63.75a2.08 2.08 0 0 0-2.1 2.079zM18.979 53.816a2.177 2.177 0 0 0-2.954 0l-5.285 5.235a2.079 2.079 0 0 0 0 3 2.078 2.078 0 0 0 2.953 0l5.286-5.236a2.077 2.077 0 0 0-.001-2.999zm36.92-34.415a2.135 2.135 0 0 0 1.477-.616l5.285-5.235a2.079 2.079 0 0 0 0-3 2.125 2.125 0 0 0-3.031 0l-5.286 5.235a2.079 2.079 0 0 0 0 3 2.484 2.484 0 0 0 1.554.615zm-39.874-.616a2.079 2.079 0 0 0 2.954 0 2.079 2.079 0 0 0 0-3l-5.286-5.235a2.125 2.125 0 0 0-3.031 0 2.079 2.079 0 0 0 0 3zM59.63 62.054a2.078 2.078 0 0 0 2.953 0 2.079 2.079 0 0 0 0-3l-5.207-5.235a2.127 2.127 0 0 0-3.032 0 2.077 2.077 0 0 0 0 3zM16.879 36.8a19.609 19.609 0 0 1 19.509-19.71h.156a19.457 19.457 0 0 1 14.3 33.029 13.212 13.212 0 0 0-3.731 7.468 5.082 5.082 0 0 1-5.052 4.234h-10.88a5.024 5.024 0 0 1-5.053-4.234 14.259 14.259 0 0 0-3.73-7.468A20.136 20.136 0 0 1 16.879 36.8zm4.353-.077a14.833 14.833 0 0 0 4.352 10.317 18.1 18.1 0 0 1 4.9 9.777.694.694 0 0 0 .777.616h3.343V44.962l-4.508-4.465a2.031 2.031 0 0 1 0-2.849 2.079 2.079 0 0 1 2.876 0l3.653 3.618 3.653-3.618a2.079 2.079 0 0 1 2.876 0 2.032 2.032 0 0 1 0 2.849l-4.509 4.465v12.549h3.343a.836.836 0 0 0 .777-.616 17.584 17.584 0 0 1 4.9-9.778A15.164 15.164 0 0 0 36.466 21.4h-.154a15.2 15.2 0 0 0-15.08 15.324z"/></svg>