<svg xmlns="http://www.w3.org/2000/svg" width="56" height="56"><path class="cls-1" d="M28 1a27 27 0 1 0 27 27A27.03 27.03 0 0 0 28 1zm25.136 26.079H42.7a32.725 32.725 0 0 0-3.021-12.755 28.942 28.942 0 0 0 6.458-3.734 25.071 25.071 0 0 1 6.999 16.489zM28.614 11.125a.614.614 0 1 1-.614-.614.614.614 0 0 1 .614.614zm.306 2.272a2.449 2.449 0 0 0 0-4.544V2.966a38.072 38.072 0 0 1 8.211 10.36 28.524 28.524 0 0 1-8.211 1.478V13.4zm2.84-10.274A25.065 25.065 0 0 1 44.8 9.3a27.139 27.139 0 0 1-5.936 3.377 39.171 39.171 0 0 0-7.104-9.554zm-4.681.9v4.826a2.45 2.45 0 0 0 0 4.544V14.8a28.548 28.548 0 0 1-7.251-1.17 37.278 37.278 0 0 1 7.251-9.603zm-9.016 9.011A27.245 27.245 0 0 1 11.2 9.3a25.071 25.071 0 0 1 14.344-6.332 38.854 38.854 0 0 0-7.481 10.07zm9.016 3.6v10.441H19.6a4 4 0 0 0-3.083-2.988 31.28 31.28 0 0 1 2.5-8.785 30.443 30.443 0 0 0 8.062 1.336zm-11.352 9.214A2.148 2.148 0 1 1 13.579 28a2.15 2.15 0 0 1 2.148-2.148zm3.877 3.068h7.475V38.98a30.494 30.494 0 0 0-8.207 1.384 31.229 31.229 0 0 1-2.351-8.459A4 4 0 0 0 19.6 28.92zM30.2 40.9a3.979 3.979 0 0 0 6.676 2.268 38.312 38.312 0 0 1-7.957 9.871V40.826a22.8 22.8 0 0 1 1.281.074zm1.788-.623a2.148 2.148 0 1 1 2.147 2.148 2.149 2.149 0 0 1-2.146-2.153zm-4.91.553v11.147a37.151 37.151 0 0 1-7.415-9.926 28.766 28.766 0 0 1 7.416-1.226zm-1.54 12.212a25.074 25.074 0 0 1-14.572-6.54 27.132 27.132 0 0 1 6.937-3.846 38.778 38.778 0 0 0 7.636 10.381zM39.03 43.017a26.879 26.879 0 0 1 6 3.483 25.087 25.087 0 0 1-13.274 6.382 39.088 39.088 0 0 0 7.275-9.87zm-.928-2.327a3.756 3.756 0 0 0 .022-.413 3.988 3.988 0 0 0-7.787-1.213q-.709-.054-1.418-.075V28.92h11.939a30.879 30.879 0 0 1-2.754 11.766zm-9.183-13.606V16.638a30.41 30.41 0 0 0 9.037-1.65 30.914 30.914 0 0 1 2.9 12.092H28.92zM9.863 10.59a28.976 28.976 0 0 0 7.407 4.113 33.019 33.019 0 0 0-2.613 9.458 4 4 0 0 0-2.807 2.918H2.864A25.066 25.066 0 0 1 9.863 10.59zm-7 18.33h8.986a4 4 0 0 0 2.808 2.919 33.011 33.011 0 0 0 2.468 9.139 28.907 28.907 0 0 0-7.474 4.212 25.065 25.065 0 0 1-6.787-16.27zm43.484 16.268a28.687 28.687 0 0 0-6.521-3.84A32.7 32.7 0 0 0 42.7 28.92h10.436a25.064 25.064 0 0 1-6.788 16.268z"/></svg>