<svg xmlns="http://www.w3.org/2000/svg" width="60.813" height="60.81"><path class="cls-1" d="M41.808 35.46h-22.8a1.265 1.265 0 1 0 0 2.53h22.8a1.265 1.265 0 1 0 0-2.53zm0 5.07h-22.8a1.27 1.27 0 0 0 0 2.54h22.8a1.27 1.27 0 0 0 0-2.54zm0-10.15h-22.8a1.27 1.27 0 0 0 0 2.54h22.8a1.27 1.27 0 0 0 0-2.54zM59.32 17.67L50.187 3.95a8.839 8.839 0 0 0-7.378-3.96h-23.41a11.36 11.36 0 0 0-9.521 5.14L1.699 17.55a8.823 8.823 0 0 0-1.7 5.22v31.71a6.343 6.343 0 0 0 6.334 6.34h48.138a6.343 6.343 0 0 0 6.334-6.34V22.59a8.827 8.827 0 0 0-1.486-4.92zM3.764 19.03l.036-.06 8.193-12.45a8.842 8.842 0 0 1 7.406-3.99h23.41a6.311 6.311 0 0 1 5.27 2.82l9.133 13.72a6.423 6.423 0 0 1 .573 1.21h-5.843a6.328 6.328 0 0 0-6.334 6.3V41.8a3.8 3.8 0 0 1-3.8 3.8h-22.8a3.8 3.8 0 0 1-3.8-3.8V26.58a6.328 6.328 0 0 0-6.334-6.3H3.069a6.36 6.36 0 0 1 .695-1.25zm54.512 35.45a3.81 3.81 0 0 1-3.8 3.81H6.338a3.81 3.81 0 0 1-3.8-3.81V22.82h6.334a3.787 3.787 0 0 1 3.8 3.76V41.8a6.349 6.349 0 0 0 6.334 6.34h22.8a6.349 6.349 0 0 0 6.334-6.34V26.58a3.787 3.787 0 0 1 3.8-3.76h6.334v31.66zM41.808 25.31h-22.8a1.27 1.27 0 0 0 0 2.54h22.8a1.27 1.27 0 0 0 0-2.54zm-24.069-2.54h25.336a1.265 1.265 0 1 0 0-2.53H17.739a1.265 1.265 0 1 0 0 2.53z"/></svg>