<svg xmlns="http://www.w3.org/2000/svg" viewBox="0 0 198.425 132.744" style="version:1"><path d="M141.468 75.372v.145c0 9.575-6.977 16.611-18.315 16.611-9.157 0-15.48-3.627-19.84-8.777l7.704-7.327c3.488 3.918 7.122 6.093 12.282 6.093 4.215 0 7.195-2.393 7.195-6.165-.056-.1.822-6.6-9.957-6.6h-4.651l-1.745-7.11 16.32-16.385-6.54 4.2h-17.628v-9.574h34.375v8.414l-12.863 12.258c6.904 1.161 13.663 4.787 13.663 14.217m-31.905-58.107c0-4.597 3.302-8.297 7.936-8.297h5.222l-1.367.681c.062 12.6-.25 14.187.556 16.029l-4.353-.001c-4.634 0-7.994-3.758-7.994-8.354v-.058zm7.936 10.523h4.637v-1.667a3.222 3.222 0 0 0 1.464 1.359c1.475.7.403.26 42.703.39V6.858h-2.231v18.785s-38.678.149-39.413-.181c-.638-.287-.87-.943-.976-1.642-.169-1.135-.066-1.156-.097-16.962h-6.029c-6.169 0-10.369 4.885-10.369 10.465v.058c0 5.579 4.142 10.407 10.311 10.407M182.746 4.63h-4.888c.106-1.616-.642-4.63 2.651-4.63h1.574v1.552c-1.524.113-2.401-.371-2.401.846v.515h3.064V4.63zm5.65 23.467a6.84 6.84 0 0 1-1.813-.251l.586-2.143c1.009.287 2.299.304 2.831-.598.621-1.068.399-1.444.432-18.247h2.231c-.064 15.685.154 16.123-.209 17.941-.428 2.127-1.718 3.298-4.058 3.298M123.586 4.63h-2.232V2.403h2.232V4.63zm49.106 7.684c1.047-2.039 3.245-3.174 5.492-3.198v-.004h3.605l-1.274.635v10c-1.756-.052-2.99.167-4.616-.349-2.22-.698-3.724-2.406-3.724-4.885 0-.797.172-1.531.517-2.199m0 7.892c2.905 2.07 6.866 1.728 7.073 1.767l.75-1.571c-.121 1.523.419 3.651-1.004 4.717-1.203.899-3.348.87-4.672.556-.548-.129-1.176-.352-1.883-.667l-.697 2.143c1.414.521 2.766.946 4.267.946 2.176 0 3.756-.515 4.742-1.544.985-1.031 1.478-2.418 1.478-4.162V6.858c-2.746.086-4.829-.277-7.335.585-6.715 2.309-6.849 9.823-2.719 12.763M119.123 4.63h-2.232V2.403h2.232V4.63zM96.028 6.834h2.304v20.911h-1.886L81.607 8.936l1.312 3.048v15.761h-2.305V6.834h2.215l14.17 17.99-.971-2.566V6.834zM9.009 27.894L0 6.834h2.634l8.042 19.439-.228-2.298 7.121-17.141h2.543l-9.008 21.06H9.009zm39.923-21.06h2.364v20.91h-2.364V6.834zM74.29 17.349c0 4.75-3.411 8.573-8.2 8.573s-8.261-3.883-8.261-8.632v-.061c0-4.749 3.413-8.572 8.201-8.572 4.789 0 8.26 3.883 8.26 8.633v.059zm-8.2-10.873c-6.375 0-10.715 5.048-10.715 10.814v.059c0 5.765 4.28 10.754 10.655 10.754s10.715-5.048 10.715-10.813v-.061c0-5.764-4.28-10.753-10.655-10.753M45.031 22.069v.059c0 3.584-2.993 5.915-7.153 5.915-3.322 0-6.045-1.105-8.559-3.346l1.466-1.732c2.185 1.971 4.28 2.956 7.184 2.956 2.813 0 4.668-1.492 4.668-3.554v-.059c0-5.836-12.48-1.986-12.48-10.008v-.059c0-3.286 2.903-5.706 6.884-5.706 3.052 0 5.237.867 7.362 2.57l-1.376 1.821c-4.75-3.864-10.506-2.384-10.506 1.106v.06c0 1.971 1.077 3.076 5.687 4.062 4.669 1.016 6.823 2.719 6.823 5.915m-19.343 5.676h-2.364V6.835h2.364v20.91zm137.605 2.351h2.232v2.227h-2.232v-2.227zm-4.463 0h2.232v2.227h-2.232v-2.227zM18.71 81.609h19.398v9.649H.461v-8.85c18.811-15.964 25.728-19.084 25.728-26.04 0-4.28-2.835-6.601-6.832-6.601-3.925 0-6.614 2.175-10.393 6.817l-7.849-6.309C6.13 43.456 11 39.756 20.084 39.756c10.538 0 17.515 6.166 17.515 15.669v.144c0 11.916-9.021 15.757-24.49 28.223l-2.16 1.664 7.761-3.847zm168.015-15.594c0 8.704-6.25 15.813-15.263 15.813-9.012 0-15.407-7.254-15.407-15.959v-.145c0-8.704 6.251-15.812 15.262-15.812s15.408 7.254 15.408 15.957v.146zm-15.263-26.403c-15.697 0-27.108 11.823-27.108 26.257v.146c0 14.435 11.264 26.113 26.963 26.113s27.108-11.824 27.108-26.259v-.145c0-14.434-11.265-26.112-26.963-26.112m-102.944-3.34l2.577 2.468-2.473 2.571-2.576-2.468m8.369 0l2.575 2.468 2.473-2.571-2.576-2.468m-6.1 5.812l2.007 1.921 1.924-2.002-2.005-1.921m5.429 3.101l2.006 1.922 1.924-2.002-2.006-1.922m-12.559 3.964l2.006 1.922 1.924-2.002-2.004-1.922m4.805 2.235l2.005 1.922 1.925-2.002-2.006-1.922m-4.557 4.305l1.411 1.352 1.354-1.409-1.411-1.352m3.969 2.47l1.411 1.352 1.355-1.409-1.411-1.351m10.27-9.304l4.377-.803.801 4.369-4.377.802zm-5.713 1.83l3.512-.643.642 3.506-3.511.643zm6.79 4.885l3.51-.644.643 3.506-3.511.644zm-4.844.514l2.735-.501.5 2.728-2.735.501zm5.32 5.185l2.735-.501.5 2.73-2.735.5zm-9.416-4.075l2.735-.501.5 2.73-2.736.5zm4.962 3.575l2.735-.5.5 2.729-2.735.5zm-3.485.33l1.924-.353.352 1.92-1.924.353zm3.696 3.969l1.923-.351.351 1.919-1.923.352z"/><path d="M101.572 52.342l-1.913 4.012 4.02 1.908 1.911-4.011m-9.723-3.762l-1.534 3.218 3.224 1.531 1.534-3.218m-.586 6.396l-1.534 3.219 3.225 1.53 1.534-3.218m-7.45-3.945l-1.194 2.506 2.511 1.192 1.195-2.506m-1.237 6.121l-1.195 2.506 2.51 1.192 1.196-2.506m-7.76-9.997l-1.195 2.506 2.511 1.192 1.195-2.506m-.58 4.606l-1.195 2.506 2.51 1.192 1.196-2.506m-5.531-2.959l-.841 1.763 1.766.838.841-1.762m-1.939 6.294l.839-1.763 1.765.84-.839 1.763zm14.693 5.877l-3.902 2.136 2.141 3.895 3.902-2.136m-5.68-8.729l-3.13 1.714 1.717 3.124 3.13-1.714m-4.224 4.845L94.56 76.4l1.718 3.125 3.13-1.714m-3.729-7.55l-2.437 1.335 1.336 2.432 2.439-1.334m-4.591 4.242l-2.438 1.335 1.337 2.432 2.438-1.334m-.432-12.638l-2.438 1.334 1.337 2.434 2.439-1.335m-3.171 3.396l-2.438 1.335 1.337 2.432 2.438-1.334m-2.751-5.629l-1.715.939.941 1.711 1.714-.938m-3.549 3.038l-1.715.939.94 1.711 1.715-.938m.851 16.416l.544-4.41 4.418.546-.545 4.41zm.953-6.734l.438-3.537 3.543.439-.438 3.537zm-6.707 4.999l.438-3.537 3.544.44-.438 3.536zm1.846-5.44l.34-2.755 2.76.342-.34 2.754zm-6.554 3.51l.341-2.754 2.759.341-.34 2.754zm6.716-7.753l.342-2.755 2.76.342-.342 2.755zm-4.902 3.654l.34-2.753 2.76.342-.34 2.754zm1.649-4.125l.24-1.937 1.94.24-.24 1.937zm-4.906 2.325l.24-1.937 1.941.24-.24 1.937zm-.709 13.824l-3.262-3.023-3.028 3.256 3.262 3.022m2.427-65.478l-3.262-3.023-3.028 3.256 3.262 3.022m7.11 54.091L77.516 89.2l-2.429 2.612 2.617 2.424m-5.939-2.472l-2.618-2.425-2.429 2.612 2.617 2.424m6.002-5.912l-2.038-1.888-1.891 2.033 2.037 1.888m-5.48-3.01l-2.037-1.888-1.891 2.033 2.038 1.889m11.879-4.394l-2.038-1.888-1.891 2.033 2.037 1.888m-4.229-1.932l-2.038-1.888-1.891 2.033 2.037 1.888m4.485-4.379l-1.433-1.329-1.33 1.431 1.433 1.328m-4.009-2.404l-1.433-1.328-1.331 1.43 1.433 1.328m-15.353 5.992l4.365-.875.872 4.355-4.364.875zm6.717-1.237l3.501-.702.7 3.495-3.5.701zm-6.863-4.775l3.5-.702.7 3.494-3.5.702zm5.758.029l2.726-.546.545 2.72-2.725.547zm4.078-1.179l2.726-.546.545 2.722-2.726.546zm-5.023-3.492l2.726-.546.545 2.72-2.726.547zm4.449.262l1.918-.384.383 1.915-1.918.383zm-3.759-3.91l1.917-.384.384 1.914-1.917.384zm-13.372 3.688l1.845-4.042-4.051-1.842-1.845 4.042m9.785 3.601l1.48-3.243-3.249-1.477-1.481 3.243m.479-6.405l1.481-3.243-3.25-1.478-1.48 3.244m4.983 2.673l1.152-2.525 2.528 1.153-1.152 2.525zm5.917 7.461l1.153-2.525-2.53-1.15-1.153 2.525m-4.777-13.605l1.153-2.525 2.528 1.153-1.153 2.526zm5.393 8.716l1.153-2.525 2.528 1.153-1.153 2.526zm-2.028-5.76l1.152-2.525 2.528 1.155-1.153 2.525zm5.577 2.862l.811-1.776-1.78-.81-.811 1.777m1.022-4.555l.811-1.777-1.78-.809-.811 1.777m-12.197-6.595l3.867-2.2-2.206-3.859-3.866 2.2m5.825 8.635l3.102-1.765-1.77-3.096-3.101 1.766m4.144-4.915l3.102-1.765-1.77-3.097-3.101 1.766m3.854 7.487l2.414-1.375-1.377-2.41-2.415 1.374m4.52-4.316l2.414-1.375-1.377-2.41-2.415 1.374m.641 12.629l2.416-1.374-1.377-2.411-2.416 1.375m3.114-3.448l2.415-1.374-1.377-2.411-2.415 1.375m2.844 5.582l1.699-.967-.969-1.695-1.699.966m3.498-3.097l1.7-.967-.969-1.695-1.7.967M51.128 42.55l.472-4.416 4.425.473-.472 4.417zm.132 5.985l.38-3.543 3.55.38-.379 3.543zm6.622-5.109l.379-3.544 3.55.38-.379 3.544zm-.88 4.781l.295-2.76 2.765.297-.296 2.759zm6.486-3.63l.295-2.76 2.764.295-.294 2.76zm-6.585 7.865l.296-2.76 2.764.297-.296 2.759zm4.845-3.739l.296-2.76 2.764.297-.296 2.76zm-.672 3.43l.207-1.94 1.945.207-.208 1.941zm4.865-2.411l.207-1.94 1.946.206-.207 1.941zm21 18.513c-2.33-1.342-5.572-1.732-8.931-.502-1.468.555-2.938 1.524-4.178 2.473-.781-4.735-.4-9.13-.218-11.289.001-.012.015-.018.026-.011 1.677 1.055 1.207 4.003.855 4.846-.007.017.018.028.03.014 2.09-2.468 1.069-5.193.64-5.883-.078-.125.395.254.783.751 1.461 1.86.786 3.949.949 3.9.004-.001.009 0 .011-.005.971-1.905.659-4.321-1.338-6.066-.091-.077.265.039.378.079 1.703.591 2.591 2.345 2.579 3.909 0 .344 1.15-2.938-1.63-4.606-.52-.311-1.054-.482-1.403-.524-.272-.029 1.489-.294 2.726.544.743.501.938 1.107.919.937-.216-2.197-2.806-3.065-4.376-2.406-.166.083.618-1.079 2.134-.989.292.017.562.08.778.183.015.007.029-.013.018-.026-1.145-1.309-3.029-1.336-4.029.178-.007.01-.022.01-.028 0a7.686 7.686 0 0 1-.833-2.368c-.033-.21-.103 1.015-.863 2.368-.006.01-.02.01-.027 0-1.003-1.518-2.885-1.488-4.029-.178-.012.013.002.033.018.026.764-.363 2.207-.256 2.93.781.009.014-.004.032-.02.025-1.618-.68-4.16.243-4.375 2.406-.001.018.023.028.032.012.072-.135.25-.423.583-.715 1.294-1.14 3.329-.81 3.03-.778-.795.098-2.427.806-3.03 2.424-.493 1.322-.018 3.063 0 2.632.016-1.471.859-3.441 2.94-3.943.016-.004.028.018.015.029-3.234 2.843-1.278 6.334-1.308 6.058-.1-1.127-.183-3.139 1.686-4.658.014-.011.036.004.026.02-.429.69-1.449 3.415.64 5.883.012.014.037.003.03-.014-.351-.843-.821-3.791.855-4.846.011-.007.025-.001.026.011.183 2.159.564 6.554-.218 11.289-2.656-2.03-5.271-3.361-8.639-3.213-1.694.074-3.301.567-4.47 1.242-.042.024-.011.085.034.071 4.899-1.566 9.139.334 13.081 3.614-1.991 1.735-3.798 3.551-4.848 4.099a1.1 1.1 0 0 0-1.135-.427c-.876.193-1.085 1.29-.61 1.762 1.721 1.717 4.412-1.69 7.631-4.538 3.098 2.738 5.913 6.254 7.631 4.538.137-.137.296-.589.214-.948-.207-.896-1.398-1.155-1.959-.387-1.01-.509-2.783-2.301-4.848-4.099 3.97-3.309 8.164-5.156 13.08-3.614.046.014.077-.047.035-.071m-15.676 46.873h1.277v-11.436h-1.277v11.436zm-33.461-1.275l-1.995-4.891c2.064-1.747 4.625-1.426 6.273 0l-1.995 4.891h-2.283zm-7.04 0c-1.004-.03-1.71.095-2.642-.198-3.451-1.09-2.513-5.888 1.349-5.888h1.293v6.086zm35.504 0c-2.057-.063-3.91.363-4.853-1.274.186-.818.084-1.552.112-5.306H60.25v4.318c0 3.169-3.824 2.963-4.726 1.06-.362-.765-.141-1.085-.207-5.378h-1.278v4.414c0 1.44-.901 2.166-2.155 2.166H49.41v-6.58h-1.277v6.58h-6.705l2.235-5.337c-1.268-1.108-3.033-2.151-4.725-2.151-1.719 0-3.45.998-4.726 2.151l2.251 5.337h-4.422v-7.376h-2.043c-2.888 0-5.285 1.66-5.285 4.381 0 4.843 5.941 4.246 6.051 4.27-.02.157.159 1.251-.575 1.801-.686.514-1.911.499-2.674.319a6.222 6.222 0 0 1-1.077-.383l-.399 1.227c.81.298 1.583.542 2.442.542 2.434 0 3.56-1.214 3.56-3.267v-.239c20.842-.131 20.226.3 21.496-.398a3.277 3.277 0 0 0 1.173-1.068c.309.51.729.909 1.261 1.196 1.117.599 2.821.543 3.856.031a2.73 2.73 0 0 0 1.237-1.227c.493.842 1.258 1.383 2.794 1.451v.015h3.687v-11.436h-1.277v10.161zm114.59-.565c-1.13 2.641-5.02 2.717-6.146-.04a3.5 3.5 0 0 1 0-2.589c1.363-3.378 6.41-2.408 6.41 1.299 0 .477-.088.921-.264 1.33m-12.388 0c-.977 2.27-3.921 2.606-5.46 1.02-1.263-1.306-1.226-3.433-.007-4.716.993-1.055 2.524-1.225 3.695-.742 1.846.77 2.461 2.837 1.772 4.438m-31.058.565c-.977-.03-1.685.098-2.611-.206-3.363-1.105-2.561-5.896 1.349-5.896h1.262v6.102zm48.977 0H182c1.37-3.007-.758-6.532-4.263-6.532-3.228 0-5.486 3.308-4.167 6.532h-3.959c1.335-2.919-.688-6.532-4.262-6.532-3.23 0-5.486 3.309-4.167 6.532h-4.055v-10.161h-1.277v10.161h-4.07c-.07-1.309.297-3.246-.799-4.469-.743-.838-1.57-1.099-2.698-1.099h-5.651l2.404-4.593h-1.389l-2.452 4.577c.079.508.233.905.575 1.29 6.387.054 6.804-.134 7.559.184.592.245.953.692 1.078 1.235.152.654.075 1.146.096 2.875h-11.814v-7.376h-2.012c-3.384 0-5.268 2.013-5.268 4.333 0 2.907 2.338 4.318 5.268 4.318h25.335c1.879 2.024 5.042 1.852 6.769 0h5.619c1.873 2.018 5.033 1.859 6.77 0h6.497v-11.436h-1.278v10.161zm4.997 1.275h1.277v-11.436h-1.277v11.436zm-94.098 2.806H98.6v-1.309h-1.312v1.309zm12.486-4.081l-1.996-4.891c2.048-1.734 4.605-1.441 6.274 0l-1.995 4.891h-2.283zm9.051 0h-5.427l2.234-5.337c-1.271-1.114-3.042-2.151-4.725-2.151-1.725 0-3.451 1.003-4.726 2.151l2.251 5.337h-4.756v-7.376h-1.278v8.922c0 1.127-.082 1.96-1.213 1.96-.263 0-.402-.023-.654-.096l-.335 1.228c1.067.292 2.327.194 2.953-.726.566-.833.499-1.983.527-2.637h16.427v-11.436h-1.278v10.161zm-96.953-6.261c-1.42-1.55-3.064-.988-3.624-1.115v1.274c.932.036 1.363-.103 1.995.199.532.256.908.669 1.062 1.251.173.669.076 1.191.104 4.652h-5.987v1.275h7.264c-.053-4.83.132-5.342-.2-6.421a2.929 2.929 0 0 0-.614-1.115m70.747 10.357h1.312v-1.309h-1.312v1.309zm-7.765-4.096c-.975-.03-1.684.098-2.611-.206-3.367-1.106-2.556-5.896 1.349-5.896h1.262v6.102zm13.729-7.376h-1.277v7.376h-4.821v-7.376h-1.277v7.376h-5.077v-7.376c-1.606.05-4.002-.325-5.843 1.234-2.61 2.211-1.937 7.417 3.832 7.417h14.463v-8.651zm-8.201 11.472h1.312v-1.309h-1.312v1.309zM5.037 103.672H3.725v1.309h1.312v-1.309zm131.409 0h-1.312v1.309h1.312v-1.309zm-50.321 0h-1.312v1.309h1.312v-1.309zm-73.554 14.257h1.312v-1.309h-1.312v1.309zm71.317-14.257h-1.312v1.309h1.312v-1.309zm-76.614 0H5.962v1.309h1.312v-1.309zm3.06 14.257h1.312v-1.309h-1.312v1.309zm-4.331-4.096c-.973-.03-1.686.098-2.61-.206-3.361-1.102-2.567-5.896 1.349-5.896h1.261v6.102zm7.631-7.376h-1.277v7.376H7.28v-7.376c-1.531.047-2.748-.153-4.183.326-1.203.404-2.186 1.147-2.722 2.287-.558 1.186-.457 2.696.057 3.664.925 1.746 2.86 2.374 4.836 2.374h8.366v-8.651zm110.188 8.651h1.277v-11.436h-1.277v11.436zm14.86-11.436h-1.312v1.309h1.312v-1.309zM1.251 123.484h1.603v4.578l4.339-4.578h1.968l-3.792 3.915 3.961 5.189H7.389l-3.114-4.097-1.421 1.457v2.64H1.251m9.541-9.104h1.603v9.104h-1.603zm4.071 0h1.486l4.887 6.295v-6.295h1.576v9.104H21.47l-5.03-6.477v6.477h-1.577m9.934-4.526v-.026c0-2.549 1.955-4.709 4.704-4.709 1.59 0 2.568.443 3.506 1.236l-1.016 1.21c-2.47-2.098-5.512-.587-5.512 2.237v.026c0 1.873 1.237 3.251 3.1 3.251.861 0 1.643-.273 2.203-.689v-1.704h-2.333v-1.391h3.884v3.823c-3.262 2.787-8.536 1.355-8.536-3.264m14.151 3.069c4.254 0 4.203-6.191 0-6.191H37.15v6.191h1.798zm-3.401-7.647h3.401c6.508 0 6.42 9.104 0 9.104h-3.401v-9.104z"/><path d="M53.155 128.062v-.026c0-1.769-1.29-3.238-3.102-3.238-1.811 0-3.075 1.443-3.075 3.212v.026c0 1.769 1.29 3.239 3.101 3.239 1.812 0 3.076-1.444 3.076-3.213m-7.858 0v-.026c0-2.562 1.981-4.709 4.782-4.709 2.802 0 4.757 2.121 4.757 4.683v.026c0 2.562-1.98 4.708-4.783 4.708-2.801 0-4.756-2.12-4.756-4.682m11.53-4.578h1.707l2.776 4.305 2.775-4.305h1.707v9.104h-1.603v-6.529l-2.879 4.292h-.052l-2.854-4.266v6.503h-1.577m22.679-4.526v-.026c0-1.769-1.29-3.238-3.102-3.238-1.811 0-3.075 1.443-3.075 3.212v.026c0 1.769 1.29 3.239 3.101 3.239 1.812 0 3.076-1.444 3.076-3.213m-7.858 0v-.026c0-2.562 1.981-4.709 4.782-4.709 2.802 0 4.757 2.121 4.757 4.683v.026c0 2.562-1.981 4.708-4.783 4.708-2.801 0-4.756-2.12-4.756-4.682m11.531-4.578h6.789v1.457h-5.186v2.484h4.6v1.456h-4.6v3.707h-1.603m11.848-1.326l.964-1.145c.873.755 1.746 1.184 2.88 1.184.99 0 1.616-.455 1.616-1.145v-.025c0-2.034-5.096-.646-5.096-4.111v-.026c0-2.794 3.911-3.507 6.425-1.495l-.86 1.209c-2.098-1.561-3.961-.947-3.961.144v.026c0 2.005 5.095.737 5.095 4.096V130c0 3.192-4.526 3.521-7.063 1.262m14.269-2.289l-1.577-3.642-1.564 3.642h3.141zm-2.294-5.554h1.485l4.014 9.169h-1.694l-.925-2.198h-4.314l-.937 2.198h-1.643l4.014-9.169zm6.442 5.307v-5.242h1.603v5.177c0 1.691.873 2.601 2.306 2.601 1.421 0 2.294-.858 2.294-2.536v-5.242h1.603v5.164c0 2.718-1.538 4.084-3.923 4.084-2.372 0-3.883-1.366-3.883-4.006m13.553 2.405c4.254 0 4.204-6.191 0-6.191h-1.798v6.191h1.798zm-3.401-7.647h3.401c6.508 0 6.42 9.104 0 9.104h-3.401v-9.104zm10.279 0h1.603v9.104h-1.603zm13.477 5.489l-1.577-3.642-1.564 3.642h3.141zm-2.294-5.554h1.485l4.014 9.169h-1.694l-.925-2.198h-4.314l-.937 2.198h-1.643l4.014-9.169zm10.962 4.578c1.147 0 1.877-.598 1.877-1.522v-.026c0-.975-.704-1.509-1.89-1.509h-2.332v3.057h2.345zm-3.948-4.513h4.065c1.928 0 3.389.969 3.389 2.874-.037.1.19 2.108-2.177 2.784l2.463 3.446h-1.89l-2.241-3.174h-2.006v3.174h-1.603v-9.104zm15.227 5.489l-1.577-3.642-1.564 3.642h3.141zm-2.294-5.554h1.486l4.013 9.169h-1.694l-.925-2.198h-4.314l-.937 2.198h-1.643l4.014-9.169zm11.248 7.752c1.095 0 1.759-.43 1.759-1.249v-.026c0-.767-.612-1.223-1.876-1.223h-2.541v2.498h2.658zm-.469-3.85c1.029 0 1.72-.403 1.72-1.236v-.026c0-.715-.573-1.157-1.603-1.157h-2.306v2.419h2.189zm-3.766-3.837h4.092c1.604 0 2.997.75 2.997 2.315-.037.1.164 1.294-1.303 2.055 1.069.364 1.811.976 1.811 2.211v.026c0 1.626-1.342 2.497-3.375 2.497h-4.222v-9.104zm9.582 0h1.603v9.104H181.6zm9.441 5.489l-1.577-3.642-1.564 3.642h3.141zm-2.294-5.554h1.485l4.014 9.169h-1.694l-.925-2.198h-4.314l-.937 2.198h-1.643l4.014-9.169z"/></svg>