<svg xmlns="http://www.w3.org/2000/svg" width="56.031" height="57"><path class="cls-1" d="M54.906 22.179L49.482 3.922a4.282 4.282 0 0 0-2.013-2.434 4.394 4.394 0 0 0-3.149-.348l-2.887.869a4.3 4.3 0 0 0-2.45 2 4.8 4.8 0 0 0-.525 1.826l-16.1 5.825a1.35 1.35 0 0 0-.788 1.565L5.649 18.7a1.2 1.2 0 0 0-.787 1.565l.787 2.782-3.762 1.3a1.2 1.2 0 0 0-.787 1.565l1.225 4.173a1.286 1.286 0 0 0 1.225.956h.262l3.85-.869.787 2.782a1.287 1.287 0 0 0 1.225.957h.35L26.472 30a1.286 1.286 0 0 0 1.225.956h.262l4.2-.956v3.565l-14 17.735a1.342 1.342 0 0 0 .175 1.826 1.418 1.418 0 0 0 .788.261 1.371 1.371 0 0 0 1.05-.522l12.159-15.123V54.7a1.312 1.312 0 0 0 2.624 0V37.742l12.076 15.127a1.25 1.25 0 0 0 1.05.522 1.226 1.226 0 0 0 .787-.261 1.262 1.262 0 0 0 .175-1.826L34.957 33.569V29.4l10.149-2.261a4.134 4.134 0 0 0 2.887 1.217 5.153 5.153 0 0 0 1.138-.174l2.887-.869a4.3 4.3 0 0 0 2.45-2 3.9 3.9 0 0 0 .438-3.134zM4.512 28.352l-.525-1.739 2.45-.869.612 2zm6.212 2.782l-.7-2.347a.646.646 0 0 0-.088-.435l-1.4-4.694c-.087-.175-.087-.262-.175-.435l-.7-2.348 14.7-5.042 3.412 11.737zM39.07 8.443l2.013 6.781 2.8 9.477-15.135 3.39-4.287-14.345zm13.211 15.649a1.387 1.387 0 0 1-.874.7l-2.888.869a1.494 1.494 0 0 1-1.837-1.043l-2.1-7.129L41.17 6.447a1.688 1.688 0 0 1 .088-1.13 1.387 1.387 0 0 1 .875-.695l2.887-.87c.175 0 .262-.087.437-.087a1.654 1.654 0 0 1 .7.174 1.382 1.382 0 0 1 .7.87l5.424 18.257a1.282 1.282 0 0 1 0 1.126z"/></svg>