<svg xmlns="http://www.w3.org/2000/svg" width="66" height="58"><path d="M5.25 0A5.266 5.266 0 0 0 0 5.205V55.77a2.254 2.254 0 0 0 3.68 1.72l9-7.436a2.219 2.219 0 0 0 .455-3.123 2.263 2.263 0 0 0-3.15-.451q-.086.064-.165.135L4.5 51.007V5.205a.7.7 0 0 1 .75-.744h55.5a.7.7 0 0 1 .75.744V45.36a.7.7 0 0 1-.75.744h-42a2.231 2.231 0 1 0-.064 4.462H60.75A5.266 5.266 0 0 0 66 45.36V5.205A5.266 5.266 0 0 0 60.75 0H5.25zm5.766 7.436A2.238 2.238 0 0 0 9 9.667v11.9a2.241 2.241 0 0 0 2.25 2.233h12a2.241 2.241 0 0 0 2.25-2.231V9.667a2.241 2.241 0 0 0-2.25-2.231h-12a2.3 2.3 0 0 0-.234 0zm19.5 0a2.234 2.234 0 1 0 .234 4.464h25.5a2.231 2.231 0 1 0 .064-4.462H30.75a2.3 2.3 0 0 0-.234-.002zM13.5 11.9H21v7.436h-7.5V11.9zm17.016 2.974a2.234 2.234 0 1 0 .235 4.462h13.5a2.231 2.231 0 1 0 .063-4.462H30.75a2.293 2.293 0 0 0-.234-.002zm-19.5 11.9A2.238 2.238 0 0 0 9 29v11.9a2.241 2.241 0 0 0 2.25 2.231h12A2.241 2.241 0 0 0 25.5 40.9V29a2.241 2.241 0 0 0-2.25-2.231h-12a2.291 2.291 0 0 0-.234.001zm19.5 0a2.234 2.234 0 1 0 .235 4.462h24a2.231 2.231 0 1 0 .064-4.462H30.75a2.293 2.293 0 0 0-.234-.004zM13.5 31.231H21v7.436h-7.5v-7.436zm17.016 2.975a2.234 2.234 0 1 0 .235 4.462h13.5a2.231 2.231 0 1 0 .063-4.462H30.75a2.237 2.237 0 0 0-.234 0z" fill-rule="evenodd"/></svg>