<svg xmlns="http://www.w3.org/2000/svg" width="69.91" height="69.94" viewBox="0 0 69.91 69.94">
  <path id="icon-images.svg" class="cls-1" d="M1621.46,5486.11v-34.96a1.169,1.169,0,0,0-1.17-1.16h-19.8v-2.33a7,7,0,0,0-6.99-6.99h-2.33v-0.59a4.084,4.084,0,0,0-4.08-4.08,36.808,36.808,0,0,0-11.15,1.73l-19.39,5.82a6.948,6.948,0,0,0-4.99,6.7v41.15a7,7,0,0,0,4.48,6.52l15.69,6.91a17.083,17.083,0,0,0,6.04,1.1,4.084,4.084,0,0,0,4.08-4.08v-2.91h11.65c3.76,0,6.33-1.8,6.87-4.67h19.92a1.169,1.169,0,0,0,1.17-1.16v-7Zm-2.33-2.81-11.99-11.99a1.159,1.159,0,0,0-1.65,0l-6.16,6.17-8.5-8.5a1.147,1.147,0,0,0-1.64,0l-7.34,7.33v-13.5a1.723,1.723,0,0,1,1.14-1.64l5.39-1.48a4.084,4.084,0,0,0,2.79-3.87v-3.5h27.96v30.98ZM1593.5,5443a4.665,4.665,0,0,1,4.66,4.66v2.33h-6.99V5443h2.33Zm-13.98,58.85a1.752,1.752,0,0,1-1.75,1.75,14.831,14.831,0,0,1-5.16-.92l-15.69-6.91a4.7,4.7,0,0,1-3.03-4.37v-41.15a4.644,4.644,0,0,1,3.32-4.47l19.4-5.82a34.567,34.567,0,0,1,10.48-1.62,1.743,1.743,0,0,1,1.75,1.74v15.74a1.738,1.738,0,0,1-1.13,1.64l-5.4,1.48a4.075,4.075,0,0,0-2.79,3.87v39.04Zm13.98-5.25h-11.65v-2.33h16.12C1597.26,5496.34,1594.7,5496.6,1593.5,5496.6Zm-11.65-4.66v-12.33l8.16-8.16,8.49,8.5a1.177,1.177,0,0,0,1.65,0l6.16-6.17,12.82,12.82v5.34h-37.28Zm25.63-25.64a4.66,4.66,0,1,0-4.66-4.66A4.665,4.665,0,0,0,1607.48,5466.3Zm0-6.99a2.33,2.33,0,1,1-2.33,2.33A2.339,2.339,0,0,1,1607.48,5459.31Z" transform="translate(-1551.56 -5436)"/>
</svg>
