<svg xmlns="http://www.w3.org/2000/svg" width="62.062" height="68.91" viewBox="0 0 62.062 68.91">
  <path id="icon-mail.svg" class="cls-1" d="M551.532,5464.01a2.255,2.255,0,0,0-.671-1.61l-6.847-6.78h0v-10.23a2.816,2.816,0,0,0-2.82-2.8H527.1l-4.97-4.92a2.307,2.307,0,0,0-3.246,0l-4.968,4.92H499.821a2.817,2.817,0,0,0-2.821,2.8v10.23l-6.847,6.78a2.242,2.242,0,0,0-.675,1.61,2.14,2.14,0,0,0,.109.52,0.9,0.9,0,0,0-.109.41v38.19a2.808,2.808,0,0,0,2.821,2.79h56.412a2.808,2.808,0,0,0,2.821-2.79v-38.19a0.833,0.833,0,0,0-.105-0.4A2.315,2.315,0,0,0,551.532,5464.01Zm-2-.29a0.426,0.426,0,0,1,.075.52l-5.6,4.45v-10.44Zm-29.317-24.73a0.418,0.418,0,0,1,.586,0l3.639,3.6h-7.866Zm-20.393,5.46H541.19a0.941,0.941,0,0,1,.94.94v24.8l-21.33,16.98a0.455,0.455,0,0,1-.663-0.06l-21.257-16.92v-24.8A0.94,0.94,0,0,1,499.821,5444.45Zm-8.34,19.27,5.519-5.46v10.43l-5.519-4.39a0.394,0.394,0,0,1-.122-0.29A0.424,0.424,0,0,1,491.481,5463.72Zm57.23,40.34H492.3a0.937,0.937,0,0,1-.94-0.93v-36.54l27.525,21.9a2.34,2.34,0,0,0,1.646.67,2.141,2.141,0,0,0,1.521-.6l27.6-21.98v36.55A0.939,0.939,0,0,1,548.711,5504.06Zm-14.1-52.15H506.4a0.935,0.935,0,1,1,0-1.87h28.206A0.935,0.935,0,1,1,534.608,5451.91Zm0,5.58H506.4a0.93,0.93,0,1,1,0-1.86h28.206A0.93,0.93,0,1,1,534.608,5457.49Zm0,5.59H506.4a0.93,0.93,0,1,1,0-1.86h28.206A0.93,0.93,0,1,1,534.608,5463.08Zm0,5.59H506.4a0.93,0.93,0,1,1,0-1.86h28.206A0.93,0.93,0,1,1,534.608,5468.67Z" transform="translate(-489.469 -5437)"/>
</svg>
