<svg xmlns="http://www.w3.org/2000/svg" width="25" height="25" viewBox="0 0 25 25">
  <path id="icon-info.svg" class="cls-1" d="M623.5,667v1.391h0.527a11.118,11.118,0,0,1,7.525,18.77,11,11,0,0,1-7.941,3.448h-5.665a5.453,5.453,0,0,1-3.915-1.641,5.53,5.53,0,0,1-1.639-3.948v-5.9a11.1,11.1,0,0,1,3.36-7.647,11.225,11.225,0,0,1,7.748-3.086V667m0,0A12.5,12.5,0,0,0,611,679.152v5.9A6.949,6.949,0,0,0,617.942,692h5.665a12.507,12.507,0,0,0,.472-25H623.5Zm-1.944,11.068v-0.584c0.166-.056.389-0.139,0.694-0.223a7.53,7.53,0,0,1,.916-0.194c0.334-.056.639-0.112,0.945-0.14s0.583-.055.833-0.055l0.3,0.2-1.555,7.369h1.194v0.612a4.414,4.414,0,0,1-.528.3c-0.194.084-.416,0.167-0.638,0.251a2.95,2.95,0,0,1-.667.167,5.578,5.578,0,0,1-.638.055,1.212,1.212,0,0,1-.889-0.25,0.787,0.787,0,0,1-.25-0.556,5.373,5.373,0,0,1,.056-0.668c0.027-.222.083-0.445,0.138-0.723l1.167-5.311ZM623,674.2a1.173,1.173,0,0,1,.389-0.917,1.443,1.443,0,0,1,1-.334,1.474,1.474,0,0,1,1.028.334,1.173,1.173,0,0,1,.388.917,1.057,1.057,0,0,1-.388.862,1.521,1.521,0,0,1-1.028.334,1.543,1.543,0,0,1-1-.334A1.021,1.021,0,0,1,623,674.2Z" transform="translate(-611 -667)"/>
</svg>
