<svg xmlns="http://www.w3.org/2000/svg" width="30" height="24" viewBox="0 0 30 24">
  <path id="icon-envelope.svg" class="cls-1" d="M711.022,667H682.978a0.971,0.971,0,0,0-.978,1v22a0.972,0.972,0,0,0,.978,1h28.044a0.972,0.972,0,0,0,.978-1V668A0.971,0.971,0,0,0,711.022,667Zm-0.979,22H683.956V669h26.087v20Zm-23.706-15.067,6.554,5.4-4.728,4.8a1,1,0,0,0,.685,1.7,0.93,0.93,0,0,0,.685-0.3l4.923-4.967,1.957,1.6a1.012,1.012,0,0,0,.619.234,0.9,0.9,0,0,0,.62-0.234l1.957-1.6,4.924,4.967a0.931,0.931,0,0,0,1.369,0,0.982,0.982,0,0,0,0-1.4l-4.793-4.8,6.554-5.366a1.018,1.018,0,0,0,.163-1.4,0.966,0.966,0,0,0-1.37-.166l-7.3,6a0.877,0.877,0,0,0-.2.167,0.032,0.032,0,0,1-.032.033L697,680.133l-9.424-7.733a0.966,0.966,0,0,0-1.37.166A0.948,0.948,0,0,0,686.337,673.933Z" transform="translate(-682 -667)"/>
</svg>
