<svg xmlns="http://www.w3.org/2000/svg" width="66" height="58" viewBox="0 0 66 58">
  <metadata><?xpacket begin="﻿" id="W5M0MpCehiHzreSzNTczkc9d"?>
<x:xmpmeta xmlns:x="adobe:ns:meta/" x:xmptk="Adobe XMP Core 5.6-c138 79.159824, 2016/09/14-01:09:01        ">
   <rdf:RDF xmlns:rdf="http://www.w3.org/1999/02/22-rdf-syntax-ns#">
      <rdf:Description rdf:about=""/>
   </rdf:RDF>
</x:xmpmeta>
                                                                                                    
                                                                                                    
                                                                                                    
                                                                                                    
                                                                                                    
                                                                                                    
                                                                                                    
                                                                                                    
                                                                                                    
                                                                                                    
                                                                                                    
                                                                                                    
                                                                                                    
                                                                                                    
                                                                                                    
                                                                                                    
                                                                                                    
                                                                                                    
                                                                                                    
                                                                                                    
                           
<?xpacket end="w"?></metadata>
<defs>
    <style>
      .cls-1 {
        fill-rule: evenodd;
      }
    </style>
  </defs>
  <path class="cls-1" d="M5.25,0A5.266,5.266,0,0,0,0,5.205V55.77a2.254,2.254,0,0,0,3.68,1.72l9-7.436a2.219,2.219,0,0,0,.455-3.123,2.263,2.263,0,0,0-3.15-.451q-0.086.064-.165,0.135L4.5,51.007V5.205a0.7,0.7,0,0,1,.75-0.744h55.5a0.7,0.7,0,0,1,.75.744V45.36a0.7,0.7,0,0,1-.75.744h-42a2.231,2.231,0,1,0-.064,4.462H60.75A5.266,5.266,0,0,0,66,45.36V5.205A5.266,5.266,0,0,0,60.75,0H5.25Zm5.766,7.436A2.238,2.238,0,0,0,9,9.667v11.9A2.241,2.241,0,0,0,11.25,23.8h12a2.241,2.241,0,0,0,2.25-2.231V9.667a2.241,2.241,0,0,0-2.25-2.231h-12A2.3,2.3,0,0,0,11.016,7.436Zm19.5,0A2.234,2.234,0,1,0,30.75,11.9h25.5a2.231,2.231,0,1,0,.064-4.462H30.75A2.3,2.3,0,0,0,30.516,7.436ZM13.5,11.9H21v7.436H13.5V11.9Zm17.016,2.974a2.234,2.234,0,1,0,.235,4.462h13.5a2.231,2.231,0,1,0,.063-4.462H30.75A2.293,2.293,0,0,0,30.516,14.872Zm-19.5,11.9A2.238,2.238,0,0,0,9,29V40.9a2.241,2.241,0,0,0,2.25,2.231h12A2.241,2.241,0,0,0,25.5,40.9V29a2.241,2.241,0,0,0-2.25-2.231h-12A2.291,2.291,0,0,0,11.016,26.77Zm19.5,0a2.234,2.234,0,1,0,.235,4.462h24a2.231,2.231,0,1,0,.064-4.462H30.75A2.293,2.293,0,0,0,30.516,26.77ZM13.5,31.231H21v7.436H13.5V31.231Zm17.016,2.975a2.234,2.234,0,1,0,.235,4.462h13.5a2.231,2.231,0,1,0,.063-4.462H30.75A2.237,2.237,0,0,0,30.516,34.206Z"/>
</svg>
