<svg xmlns="http://www.w3.org/2000/svg" width="87" height="60" viewBox="0 0 87 60">
  <metadata><?xpacket begin="﻿" id="W5M0MpCehiHzreSzNTczkc9d"?>
<x:xmpmeta xmlns:x="adobe:ns:meta/" x:xmptk="Adobe XMP Core 5.6-c138 79.159824, 2016/09/14-01:09:01        ">
   <rdf:RDF xmlns:rdf="http://www.w3.org/1999/02/22-rdf-syntax-ns#">
      <rdf:Description rdf:about=""/>
   </rdf:RDF>
</x:xmpmeta>
                                                                                                    
                                                                                                    
                                                                                                    
                                                                                                    
                                                                                                    
                                                                                                    
                                                                                                    
                                                                                                    
                                                                                                    
                                                                                                    
                                                                                                    
                                                                                                    
                                                                                                    
                                                                                                    
                                                                                                    
                                                                                                    
                                                                                                    
                                                                                                    
                                                                                                    
                                                                                                    
                           
<?xpacket end="w"?></metadata>
<defs>
    <style>
      .cls-1 {
        fill-rule: evenodd;
      }
    </style>
  </defs>
  <path class="cls-1" d="M88,7.344A7.373,7.373,0,0,0,80.6,0H53.2l-0.74.183L44.5,3.673,36.54,0.186,35.8,0H8.4A7.373,7.373,0,0,0,1,7.344V48.819A7.373,7.373,0,0,0,8.4,56.16H35.43l8.33,3.67,0.74,0.184,0.74-.184,8.33-3.67H80.6A7.373,7.373,0,0,0,88,48.819V7.344ZM35.8,52.489H8.4a3.686,3.686,0,0,1-3.7-3.671V7.344a3.686,3.686,0,0,1,3.7-3.67H35.43l7.219,3.212V55.334L36.54,52.673Zm48.5-3.671a3.686,3.686,0,0,1-3.7,3.671H53.2l-0.74.183-6.108,2.661V6.885L53.57,3.673H80.6a3.686,3.686,0,0,1,3.7,3.67V48.819ZM33.023,14.226h-18.7a1.843,1.843,0,0,0-1.851,1.835v21.1A1.843,1.843,0,0,0,14.328,39h18.7a1.843,1.843,0,0,0,1.851-1.835v-21.1A1.843,1.843,0,0,0,33.023,14.226Zm-1.851,21.1H16.179V17.9H31.172V35.33ZM56.9,17.9H68.008a1.835,1.835,0,1,0,0-3.67H56.9A1.835,1.835,0,1,0,56.9,17.9Zm17.77,6.882H56.9a1.835,1.835,0,1,0,0,3.67h17.77A1.835,1.835,0,1,0,74.672,24.778Zm0,10.552H56.9A1.835,1.835,0,1,0,56.9,39h17.77A1.835,1.835,0,1,0,74.672,35.33Z" transform="translate(-1)"/>
</svg>
