<svg xmlns="http://www.w3.org/2000/svg" width="26" height="26" viewBox="0 0 26 26">
  <path id="icon-bell.svg" class="cls-1" d="M554.3,675.416c1.336,0.843,1.011,4.146.759,5.235a0.738,0.738,0,0,0,.577.843h0.145a0.725,0.725,0,0,0,.722-0.562c0.108-.527,1.011-5.2-1.408-6.711a0.763,0.763,0,0,0-1.011.211A0.723,0.723,0,0,0,554.3,675.416Zm5.453,8.327v-5.621a9.632,9.632,0,0,0-7.15-9.311h0.289a2.89,2.89,0,0,0-5.778,0H547.4a9.632,9.632,0,0,0-7.15,9.311v5.586a4.21,4.21,0,0,0-3.25,4.076v0.7h8.739a4.34,4.34,0,0,0,8.522,0H563v-0.7A4.2,4.2,0,0,0,559.75,683.743ZM550,667.405a1.4,1.4,0,0,1,1.408,1.2,9.534,9.534,0,0,0-1.408-.106,9.177,9.177,0,0,0-1.408.106A1.4,1.4,0,0,1,550,667.405Zm0,2.5a8.263,8.263,0,0,1,8.306,8.186v5.481H541.694v-5.445A8.27,8.27,0,0,1,550,669.9Zm0,20.694a2.789,2.789,0,0,1-2.781-2.108h5.6A2.861,2.861,0,0,1,550,690.594Zm-11.447-3.513a2.888,2.888,0,0,1,2.78-2.108h17.334a2.856,2.856,0,0,1,2.78,2.108H538.553Z" transform="translate(-537 -666)"/>
</svg>
