<svg xmlns="http://www.w3.org/2000/svg" xmlns:xlink="http://www.w3.org/1999/xlink" width="56" height="56" viewBox="0 0 56 56">
  <g transform="translate(-801 -225)">
    <path id="icon-services.svg" class="cls-1" d="M829,226a27,27,0,1,0,27,27A27.03,27.03,0,0,0,829,226Zm25.136,26.079H843.7a32.725,32.725,0,0,0-3.021-12.755,28.942,28.942,0,0,0,6.458-3.734A25.071,25.071,0,0,1,854.136,252.079Zm-24.522-15.954a0.614,0.614,0,1,1-.614-0.614A0.614,0.614,0,0,1,829.614,236.125Zm0.306,2.272a2.449,2.449,0,0,0,0-4.544v-5.887a38.072,38.072,0,0,1,8.211,10.36,28.524,28.524,0,0,1-8.211,1.478V238.4Zm2.84-10.274A25.065,25.065,0,0,1,845.8,234.3a27.139,27.139,0,0,1-5.936,3.377A39.171,39.171,0,0,0,832.76,228.123Zm-4.681.9v4.826a2.45,2.45,0,0,0,0,4.544V239.8a28.548,28.548,0,0,1-7.251-1.17A37.278,37.278,0,0,1,828.079,229.027Zm-9.016,9.011A27.245,27.245,0,0,1,812.2,234.3a25.071,25.071,0,0,1,14.344-6.332A38.854,38.854,0,0,0,819.063,238.038Zm9.016,3.6v10.441H820.6a4,4,0,0,0-3.083-2.988,31.28,31.28,0,0,1,2.5-8.785A30.443,30.443,0,0,0,828.079,241.638Zm-11.352,9.214A2.148,2.148,0,1,1,814.579,253,2.15,2.15,0,0,1,816.727,250.852Zm3.877,3.068h7.475v10.064a30.494,30.494,0,0,0-8.207,1.384,31.229,31.229,0,0,1-2.351-8.459A4,4,0,0,0,820.6,253.92ZM831.2,265.9a3.979,3.979,0,0,0,6.676,2.268,38.312,38.312,0,0,1-7.957,9.871V265.826C830.347,265.84,830.774,265.862,831.2,265.9Zm1.788-.623a2.148,2.148,0,1,1,2.147,2.148A2.149,2.149,0,0,1,832.989,265.272Zm-4.91.553v11.147a37.151,37.151,0,0,1-7.415-9.926A28.766,28.766,0,0,1,828.079,265.825Zm-1.54,12.212a25.074,25.074,0,0,1-14.572-6.54,27.132,27.132,0,0,1,6.937-3.846A38.778,38.778,0,0,0,826.539,278.037Zm13.492-10.025a26.879,26.879,0,0,1,6,3.483,25.087,25.087,0,0,1-13.274,6.382A39.088,39.088,0,0,0,840.031,268.012Zm-0.928-2.327a3.756,3.756,0,0,0,.022-0.413,3.988,3.988,0,0,0-7.787-1.213q-0.709-.054-1.418-0.075V253.92h11.939a30.879,30.879,0,0,1-2.754,11.766h0Zm-9.183-13.606V241.638a30.41,30.41,0,0,0,9.037-1.65,30.914,30.914,0,0,1,2.9,12.092H829.92ZM810.863,235.59a28.976,28.976,0,0,0,7.407,4.113,33.019,33.019,0,0,0-2.613,9.458,4,4,0,0,0-2.807,2.918h-8.986A25.066,25.066,0,0,1,810.863,235.59Zm-7,18.33h8.986a4,4,0,0,0,2.808,2.919,33.011,33.011,0,0,0,2.468,9.139,28.907,28.907,0,0,0-7.474,4.212A25.065,25.065,0,0,1,803.864,253.92Zm43.484,16.268a28.687,28.687,0,0,0-6.521-3.84A32.7,32.7,0,0,0,843.7,253.92h10.436A25.064,25.064,0,0,1,847.348,270.188Z"/>
  </g>
</svg>
