<svg xmlns="http://www.w3.org/2000/svg" width="28" height="18" viewBox="0 0 28 18">
  <path id="icon-forword.svg" class="cls-1" d="M1596.77,556.718a0.785,0.785,0,0,0,.54-0.215l8.61-8.261a0.728,0.728,0,0,0,0-1.038,0.8,0.8,0,0,0-1.09,0l-8.6,8.261a0.711,0.711,0,0,0,0,1.038A0.751,0.751,0,0,0,1596.77,556.718Zm8.6,8.277a0.8,0.8,0,0,0,.55-0.215,0.728,0.728,0,0,0,0-1.038l-8.61-8.261a0.787,0.787,0,0,0-1.08,0,0.711,0.711,0,0,0,0,1.038l8.6,8.261A0.79,0.79,0,0,0,1605.37,565Zm-8.6-8.277h26.45a0.735,0.735,0,1,0,0-1.468h-26.45A0.735,0.735,0,1,0,1596.77,556.718Z" transform="translate(-1596 -547)"/>
</svg>
