<svg xmlns="http://www.w3.org/2000/svg" width="69.9" height="69.94" viewBox="0 0 69.9 69.94">
  <path id="icon-videos.svg" class="cls-1" d="M1269.02,5486.11v-34.96a1.163,1.163,0,0,0-1.17-1.16h-19.8v-2.33a6.991,6.991,0,0,0-6.99-6.99h-2.33v-0.59a4.082,4.082,0,0,0-4.07-4.08,36.824,36.824,0,0,0-11.16,1.73l-19.39,5.82a6.939,6.939,0,0,0-4.98,6.7v41.15a6.991,6.991,0,0,0,4.47,6.52l15.69,6.91a17.1,17.1,0,0,0,6.05,1.1,4.082,4.082,0,0,0,4.07-4.08v-2.91h11.65c3.76,0,6.33-1.8,6.87-4.67h19.92a1.163,1.163,0,0,0,1.17-1.16v-7Zm-39.61-9.8v-13.5a1.723,1.723,0,0,1,1.14-1.64l5.4-1.48a4.088,4.088,0,0,0,2.78-3.87v-3.5h27.96v39.62h-37.28v-12.33m11.65-36.61a4.665,4.665,0,0,1,4.66,4.66v2.33h-6.99V5443h2.33Zm-13.98,58.85a1.752,1.752,0,0,1-1.75,1.75,14.873,14.873,0,0,1-5.16-.92l-15.69-6.91a4.688,4.688,0,0,1-3.02-4.37v-41.15a4.632,4.632,0,0,1,3.32-4.47l19.39-5.82a34.629,34.629,0,0,1,10.49-1.62,1.741,1.741,0,0,1,1.74,1.74v15.74a1.738,1.738,0,0,1-1.13,1.64l-5.4,1.48a4.075,4.075,0,0,0-2.79,3.87v39.04Zm13.98-5.25h-11.65v-2.33h16.12C1244.82,5496.34,1242.27,5496.6,1241.06,5496.6Zm7.56-8.39a15.845,15.845,0,1,1,15.83-15.85A15.855,15.855,0,0,1,1248.62,5488.21Zm0-30.61a14.765,14.765,0,1,0,14.74,14.76A14.764,14.764,0,0,0,1248.62,5457.6Zm0,11.22a4.27,4.27,0,1,1,4.26-4.27A4.272,4.272,0,0,1,1248.62,5468.82Zm0-7.45a3.18,3.18,0,1,0,3.18,3.18A3.182,3.182,0,0,0,1248.62,5461.37Zm0,22.9a4.27,4.27,0,1,1,4.26-4.27A4.272,4.272,0,0,1,1248.62,5484.27Zm0-7.46a3.185,3.185,0,1,0,3.18,3.19A3.19,3.19,0,0,0,1248.62,5476.81Zm7.88-.18a4.265,4.265,0,1,1,4.26-4.27A4.274,4.274,0,0,1,1256.5,5476.63Zm0-7.45a3.185,3.185,0,1,0,3.18,3.18A3.182,3.182,0,0,0,1256.5,5469.18Zm-15.32,7.45a4.265,4.265,0,1,1,4.26-4.27A4.274,4.274,0,0,1,1241.18,5476.63Zm0-7.45a3.185,3.185,0,1,0,3.18,3.18A3.182,3.182,0,0,0,1241.18,5469.18Zm7.44,5.14a1.955,1.955,0,1,1,1.95-1.96A1.961,1.961,0,0,1,1248.62,5474.32Zm0-2.82a0.865,0.865,0,1,0,.87.86A0.869,0.869,0,0,0,1248.62,5471.5Zm0.65,16.71H1235.4a0.545,0.545,0,0,1,0-1.09h13.87A0.545,0.545,0,0,1,1249.27,5488.21Z" transform="translate(-1199.13 -5436)"/>
</svg>
