<svg xmlns="http://www.w3.org/2000/svg" width="32.063" height="32.313" viewBox="0 0 32.063 32.313">
  <path id="icon-masjed.svg" class="cls-1" d="M863.608,74.3H834.291a1.378,1.378,0,0,1-1.376-1.371V56.057a1.378,1.378,0,0,1,1.376-1.372h29.317a1.379,1.379,0,0,1,1.376,1.372V73A1.366,1.366,0,0,1,863.608,74.3Zm-27.94-2.675H862.3v-14.2H835.668v14.2Zm23.26-14.2a1.378,1.378,0,0,1-1.376-1.371,8.6,8.6,0,0,0-17.205,0,1.377,1.377,0,0,1-2.753,0,11.287,11.287,0,0,1,22.573,0A1.228,1.228,0,0,1,858.928,57.429Zm4.68,0a1.378,1.378,0,0,1-1.377-1.371v-11.8a1.377,1.377,0,0,1,2.753,0v11.8A1.378,1.378,0,0,1,863.608,57.429Zm-29.317,0a1.378,1.378,0,0,1-1.376-1.371v-11.8a1.377,1.377,0,0,1,2.753,0v11.8A1.378,1.378,0,0,1,834.291,57.429Zm14.658-9.944a1.378,1.378,0,0,1-1.376-1.372V43.369a1.377,1.377,0,0,1,2.753,0v2.743A1.379,1.379,0,0,1,848.949,47.484ZM852.734,74.3h-7.57a1.378,1.378,0,0,1-1.376-1.371V69.5a12.847,12.847,0,0,1,4.267-9.327,1.379,1.379,0,0,1,1.858,0,12.731,12.731,0,0,1,4.266,9.327v3.43A1.487,1.487,0,0,1,852.734,74.3Zm-6.262-2.675h4.955V69.568a9.909,9.909,0,0,0-2.478-6.379,9.914,9.914,0,0,0-2.477,6.379v2.058Z" transform="translate(-832.906 -42)"/>
</svg>
