<svg xmlns="http://www.w3.org/2000/svg" width="89.69" height="90" viewBox="0 0 89.69 90">
  <path id="icon-projects.svg" class="cls-1" d="M1628.93,4670a45.064,45.064,0,0,0-44.85,44.7,45,45,0,0,0,44.56,45.3h0.29A45,45,0,0,0,1628.93,4670Zm21.93,15.2a7.513,7.513,0,0,1,6.88,8,7.413,7.413,0,0,1-7.38,6.9h-0.59a7.461,7.461,0,0,1,.5-14.9h0.59Zm-43.06,60.3a4.5,4.5,0,1,1,4.49-4.5A4.471,4.471,0,0,1,1607.8,4745.5Zm19.84-3.2a1.752,1.752,0,0,1-1.7,1.7h0a1.828,1.828,0,0,0-1.69,1.3,16.633,16.633,0,0,1-1.79,4.3,1.837,1.837,0,0,0,.29,2.2,1.845,1.845,0,0,1,.5,1.7,42.569,42.569,0,0,1-10.66-3.2,10.3,10.3,0,1,0-14.55-11.9,38.115,38.115,0,0,1-5.39-9.9,1.275,1.275,0,0,1,.4-0.6,15.274,15.274,0,0,1,1.8-1.8,1.721,1.721,0,0,1,1.19-.4,2.106,2.106,0,0,1,1.3.5h0a1.841,1.841,0,0,0,1.19.5,1.613,1.613,0,0,0,.9-0.3,16.251,16.251,0,0,1,4.29-1.8,1.716,1.716,0,0,0,1.29-1.7v-0.1a1.839,1.839,0,0,1,1.7-1.8h2.39a1.836,1.836,0,0,1,1.69,1.8v0.1a1.831,1.831,0,0,0,1.3,1.7,16.392,16.392,0,0,1,4.29,1.8,1.559,1.559,0,0,0,.89.3,1.656,1.656,0,0,0,1.2-.5h0a1.894,1.894,0,0,1,1.29-.5,1.922,1.922,0,0,1,1.2.4c0.6,0.6,1.2,1.1,1.79,1.8a1.729,1.729,0,0,1-.09,2.4h0a1.824,1.824,0,0,0-.3,2.2,16.633,16.633,0,0,1,1.79,4.3,1.711,1.711,0,0,0,1.69,1.3h0a1.839,1.839,0,0,1,1.8,1.7v1.2A2.845,2.845,0,0,1,1627.64,4742.3Zm1.29,11.6h-0.49a8.236,8.236,0,0,0-.4-3.5,8.651,8.651,0,0,0,.7-1.7,7.026,7.026,0,0,0,4.28-6.1c0-.5.1-1.1,0.1-1.6v-1.5a7.353,7.353,0,0,0-4.28-6.2,7.741,7.741,0,0,0-.7-1.6,7.033,7.033,0,0,0-1.3-7.4,22.739,22.739,0,0,0-2.19-2.2,6.961,6.961,0,0,0-4.79-1.8,8.071,8.071,0,0,0-2.69.5c-0.5-.2-1.09-0.5-1.59-0.7a7.307,7.307,0,0,0-6.18-4.4h-3.19a7.257,7.257,0,0,0-6.18,4.4,11.111,11.111,0,0,0-1.6.7,7.978,7.978,0,0,0-2.69-.5,7.117,7.117,0,0,0-4.78,1.8,0.53,0.53,0,0,1-.3.2,37.389,37.389,0,0,1-.7-7.5,39.311,39.311,0,0,1,26.02-36.4c-0.2.4-.3,0.8-0.5,1.3-0.3.8-.5,1.5-0.8,2.3a8.265,8.265,0,0,0,3.29,9.2,34.552,34.552,0,0,0,.2,5.6,8.388,8.388,0,0,0-2.59,9.4,33.524,33.524,0,0,0,1.99,4.3,8.039,8.039,0,0,0,7.18,4.3,7.42,7.42,0,0,0,1.49-.1,29.823,29.823,0,0,0,4.09,3.8,8.22,8.22,0,0,0,4.78,8.4c0.7,0.3,1.4.6,2.2,0.9,0.7,0.3,1.49.5,2.19,0.8a10.042,10.042,0,0,0,2.39.4,8.309,8.309,0,0,0,6.78-3.6h1.6c1.29,0,2.69-.1,3.98-0.2a8.233,8.233,0,0,0,6.38,3.1,9.228,9.228,0,0,0,2.89-.5,23.3,23.3,0,0,0,2.39-1A38.849,38.849,0,0,1,1628.93,4753.9Zm37.68-36.7h0a2.878,2.878,0,0,1-1.19,3.7c-1.2.6-2.4,1.2-3.69,1.7a3.553,3.553,0,0,1-1,.2,2.8,2.8,0,0,1-2.59-1.7h0a2.879,2.879,0,0,0-2.59-1.6h-0.5a25.781,25.781,0,0,1-4.78.4,26.2,26.2,0,0,1-2.8-.1h-0.29a2.706,2.706,0,0,0-2.6,1.8h0a2.779,2.779,0,0,1-2.59,1.8,2.2,2.2,0,0,1-.8-0.1c-0.59-.2-1.29-0.4-1.89-0.6a15.26,15.26,0,0,1-1.89-.8,2.846,2.846,0,0,1-1.5-3.6,2.813,2.813,0,0,0-.99-3.3,27.628,27.628,0,0,1-5.59-5.2,2.913,2.913,0,0,0-2.19-1.1,2.663,2.663,0,0,0-1.2.3h0a2.592,2.592,0,0,1-1.19.3,2.725,2.725,0,0,1-2.49-1.5c-0.6-1.2-1.2-2.4-1.7-3.7a2.885,2.885,0,0,1,1.5-3.6h0a2.826,2.826,0,0,0,1.59-3.1,32.065,32.065,0,0,1-.3-7.6,2.759,2.759,0,0,0-1.79-2.9h-0.1a2.762,2.762,0,0,1-1.7-3.5,15.872,15.872,0,0,1,.7-2c0.2-.6.5-1.2,0.7-1.8a2.8,2.8,0,0,1,2.59-1.7,3.553,3.553,0,0,1,1,.2h0.1a3.557,3.557,0,0,0,.99.2,2.676,2.676,0,0,0,2.3-1.2,12.157,12.157,0,0,1,.79-1.1h0.2a37.208,37.208,0,0,1,16.95,4.1,13.281,13.281,0,0,0-8.97,11.5,13.145,13.145,0,0,0,12.16,14.2h1a13.269,13.269,0,0,0,12.65-9.5,38.512,38.512,0,0,1,4.69,17.2l-0.3.3A3.037,3.037,0,0,0,1666.61,4717.2Z" transform="translate(-1584.09 -4670)"/>
</svg>
