<svg xmlns="http://www.w3.org/2000/svg" xmlns:xlink="http://www.w3.org/1999/xlink" width="73.312" height="76.219" viewBox="0 0 73.312 76.219">
  <path id="icon-idea.svg" class="cls-1" d="M749.6,471.906v-2.233a2.163,2.163,0,0,1,2.177-2.156h13.135a2.2,2.2,0,0,1,2.1,2.156v2.233a3.5,3.5,0,0,1-3.031,3.464l-0.544,2a2.563,2.563,0,0,1-2.41,1.848h-5.441a2.425,2.425,0,0,1-2.409-1.848l-0.545-2A3.5,3.5,0,0,1,749.6,471.906Zm8.783-57.358a2.08,2.08,0,0,0,2.1-2.079v-7.391a2.1,2.1,0,0,0-4.2,0v7.391A2.08,2.08,0,0,0,758.387,414.548ZM723.8,441.418h7.462a2.131,2.131,0,0,0,2.1-2.079,2.08,2.08,0,0,0-2.1-2.079H723.8A2.079,2.079,0,1,0,723.8,441.418Zm59.539-2.156a2.08,2.08,0,0,0,2.1,2.079H792.9a2.08,2.08,0,0,0,2.1-2.079,1.989,1.989,0,0,0-2.1-2.079h-7.462A2.08,2.08,0,0,0,783.338,439.262Zm-42.672,17.554a2.177,2.177,0,0,0-2.954,0l-5.285,5.235a2.079,2.079,0,0,0,0,3,2.078,2.078,0,0,0,2.953,0l5.286-5.236A2.077,2.077,0,0,0,740.666,456.816Zm36.92-34.415a2.135,2.135,0,0,0,1.477-.616l5.285-5.235a2.079,2.079,0,0,0,0-3,2.125,2.125,0,0,0-3.031,0l-5.286,5.235a2.079,2.079,0,0,0,0,3A2.484,2.484,0,0,0,777.586,422.4Zm-39.874-.616a2.079,2.079,0,0,0,2.954,0,2.079,2.079,0,0,0,0-3l-5.286-5.235a2.125,2.125,0,0,0-3.031,0,2.079,2.079,0,0,0,0,3Zm43.605,43.269a2.078,2.078,0,0,0,2.953,0,2.079,2.079,0,0,0,0-3l-5.207-5.235a2.127,2.127,0,0,0-3.032,0,2.077,2.077,0,0,0,0,3ZM738.567,439.8a19.609,19.609,0,0,1,19.509-19.71h0.156a19.457,19.457,0,0,1,14.3,33.029,13.212,13.212,0,0,0-3.731,7.468,5.082,5.082,0,0,1-5.052,4.234H752.869a5.024,5.024,0,0,1-5.053-4.234,14.259,14.259,0,0,0-3.73-7.468A20.136,20.136,0,0,1,738.567,439.8Zm4.353-.077a14.833,14.833,0,0,0,4.352,10.317,18.1,18.1,0,0,1,4.9,9.777,0.694,0.694,0,0,0,.777.616h3.343V447.962l-4.508-4.465a2.031,2.031,0,0,1,0-2.849h0a2.079,2.079,0,0,1,2.876,0l3.653,3.618,3.653-3.618a2.079,2.079,0,0,1,2.876,0h0a2.032,2.032,0,0,1,0,2.849l-4.509,4.465v12.549h3.343a0.836,0.836,0,0,0,.777-0.616,17.584,17.584,0,0,1,4.9-9.778A15.164,15.164,0,0,0,758.154,424.4H758A15.2,15.2,0,0,0,742.92,439.724Z" transform="translate(-721.688 -403)"/>
</svg>
