<svg xmlns="http://www.w3.org/2000/svg" width="60.813" height="60.81" viewBox="0 0 60.813 60.81">
  <path id="icon-questionnaire.svg" class="cls-1" d="M886.589,5478.46h-22.8a1.265,1.265,0,1,0,0,2.53h22.8A1.265,1.265,0,1,0,886.589,5478.46Zm0,5.07h-22.8a1.27,1.27,0,0,0,0,2.54h22.8A1.27,1.27,0,0,0,886.589,5483.53Zm0-10.15h-22.8a1.27,1.27,0,0,0,0,2.54h22.8A1.27,1.27,0,0,0,886.589,5473.38Zm17.512-12.71-9.133-13.72a8.839,8.839,0,0,0-7.378-3.96H864.18a11.36,11.36,0,0,0-9.521,5.14l-8.179,12.42a8.823,8.823,0,0,0-1.7,5.22v31.71a6.343,6.343,0,0,0,6.334,6.34h48.138a6.343,6.343,0,0,0,6.334-6.34v-31.89A8.827,8.827,0,0,0,904.1,5460.67Zm-55.556,1.36q0.019-.03.036-0.06l8.193-12.45a8.842,8.842,0,0,1,7.406-3.99h23.41a6.311,6.311,0,0,1,5.27,2.82l9.133,13.72a6.423,6.423,0,0,1,.573,1.21h-5.843a6.328,6.328,0,0,0-6.334,6.3v15.22a3.8,3.8,0,0,1-3.8,3.8h-22.8a3.8,3.8,0,0,1-3.8-3.8v-15.22a6.328,6.328,0,0,0-6.334-6.3h-5.805A6.36,6.36,0,0,1,848.545,5462.03Zm54.512,35.45a3.81,3.81,0,0,1-3.8,3.81H851.119a3.81,3.81,0,0,1-3.8-3.81v-31.66h6.334a3.787,3.787,0,0,1,3.8,3.76v15.22a6.349,6.349,0,0,0,6.334,6.34h22.8a6.349,6.349,0,0,0,6.334-6.34v-15.22a3.787,3.787,0,0,1,3.8-3.76h6.334v31.66Zm-16.468-29.17h-22.8a1.27,1.27,0,0,0,0,2.54h22.8A1.27,1.27,0,0,0,886.589,5468.31Zm-24.069-2.54h25.336a1.265,1.265,0,1,0,0-2.53H862.52A1.265,1.265,0,1,0,862.52,5465.77Z" transform="translate(-844.781 -5443)"/>
</svg>
