<svg xmlns="http://www.w3.org/2000/svg" width="27.9" height="17.969" viewBox="0 0 27.9 17.969">
  <path id="icon-back.svg" class="cls-1" d="M1662.8,556.357a0.771,0.771,0,0,1-.54-0.214l-8.58-8.247a0.709,0.709,0,0,1,0-1.036,0.787,0.787,0,0,1,1.08,0l8.58,8.246a0.71,0.71,0,0,1,0,1.037A0.789,0.789,0,0,1,1662.8,556.357Zm-8.58,8.263a0.772,0.772,0,0,1-.54-0.215,0.709,0.709,0,0,1,0-1.036l8.58-8.246a0.785,0.785,0,0,1,1.08,0,0.709,0.709,0,0,1,0,1.036l-8.58,8.246A0.79,0.79,0,0,1,1654.22,564.62Zm8.58-8.263h-26.37a0.733,0.733,0,1,1,0-1.465h26.37A0.733,0.733,0,1,1,1662.8,556.357Z" transform="translate(-1635.66 -546.656)"/>
</svg>
